<svg xmlns="http://www.w3.org/2000/svg" version="1.1" xmlns:xlink="http://www.w3.org/1999/xlink" xmlns:svgjs="http://svgjs.dev/svgjs" width="1500" height="961" viewBox="0 0 1500 961"><g transform="matrix(1,0,0,1,-1.8351063829786654,-0.07695975103729324)"><svg viewBox="0 0 376 241" data-background-color="#ffffff" preserveAspectRatio="xMidYMid meet" height="961" width="1500" xmlns="http://www.w3.org/2000/svg" xmlns:xlink="http://www.w3.org/1999/xlink"><g id="tight-bounds" transform="matrix(1,0,0,1,0.46023999999999887,0.019299999999986994)"><svg viewBox="0 0 375.07953 240.96140000000003" height="240.96140000000003" width="375.07953"><g><svg></svg></g><g><svg viewBox="0 0 375.07953 240.96140000000003" height="240.96140000000003" width="375.07953"><g transform="matrix(1,0,0,1,-10.22024,-6.238599999999991)"><path d="M10.22 240.961v-234.722h375.08v234.722h-44.388l0-8.498h35.889v-217.726h-358.082v217.726l35.889 0 0 8.498z" fill="#ed3b43" fill-rule="nonzero" stroke="none" stroke-width="1" stroke-linecap="butt" stroke-linejoin="miter" stroke-miterlimit="10" stroke-dasharray="" stroke-dashoffset="0" font-family="none" font-weight="none" font-size="none" text-anchor="none" style="mix-blend-mode: normal" data-fill-palette-color="tertiary"></path><g><path d="M95.503 227.556l1.193 19.2h-3.718l-0.25-7.88-0.055-1.692c-0.018-0.573-0.037-1.239-0.056-1.998-0.018-0.758-0.028-1.591-0.027-2.497v0l0.027-1.582-2.386 13.568h-3.69l-2.525-13.568c0.055 1.221 0.083 2.432 0.083 3.635v0c0 1.369-0.028 2.775-0.083 4.217v0l-0.25 7.797h-3.662l1.193-19.2h4.856l2.302 13.346 2.109-13.346zM111.679 246.756h-3.968l-0.86-4.384h-4.606l-0.86 4.384h-3.884l4.744-19.2h4.717zM104.548 230.469l-1.748 9.045h3.496zM113.01 227.556h3.94v19.2h-3.94zM122.139 227.556h3.912l-5.022 8.657 5.438 10.543h-4.3l-5.106-10.238zM127.688 227.556h9.85l-0.416 2.858h-5.494v5.161h4.8v2.83h-4.8v5.466h5.854v2.885h-9.794zM157.237 227.556v13.734c0 1.11-0.231 2.109-0.693 2.997-0.462 0.888-1.16 1.591-2.092 2.108-0.936 0.518-2.079 0.777-3.43 0.777v0c-2.035 0-3.588-0.542-4.661-1.626-1.073-1.08-1.609-2.499-1.609-4.256v0-13.734h3.94v13.568c0 1.054 0.185 1.831 0.555 2.33 0.37 0.499 0.962 0.749 1.775 0.749v0c0.795 0 1.378-0.255 1.748-0.765 0.37-0.507 0.555-1.278 0.555-2.314v0-13.568zM172.775 246.756h-4.19l-3.274-7.602h-0.249-1.193v7.602h-3.94v-19.2h4.827c4.68 0 7.02 1.905 7.02 5.716v0c0 1.147-0.244 2.168-0.732 3.063-0.492 0.899-1.247 1.589-2.264 2.07v0zM164.895 236.407c1.017 0 1.748-0.25 2.192-0.749 0.444-0.499 0.666-1.295 0.666-2.386v0c0-0.999-0.235-1.735-0.705-2.209-0.474-0.47-1.247-0.705-2.319-0.705v0h-0.86v6.049zM186.093 227.112c2.294 0 4.06 0.832 5.299 2.497 1.239 1.665 1.859 4.18 1.859 7.547v0c0 3.329-0.62 5.836-1.859 7.519-1.239 1.683-3.006 2.525-5.299 2.525v0c-2.312 0-4.082-0.832-5.311-2.497-1.232-1.665-1.848-4.18-1.848-7.547v0c0-3.311 0.62-5.814 1.859-7.508 1.239-1.691 3.006-2.536 5.3-2.536zM186.093 230.053c-1.054 0-1.831 0.54-2.331 1.62-0.499 1.084-0.749 2.911-0.749 5.483v0c0 2.608 0.25 4.443 0.749 5.505 0.499 1.065 1.276 1.598 2.331 1.598v0c0.721 0 1.304-0.222 1.748-0.666 0.444-0.444 0.777-1.184 0.999-2.22 0.222-1.036 0.333-2.442 0.333-4.217v0c0-2.571-0.25-4.399-0.749-5.483-0.499-1.08-1.276-1.62-2.331-1.62zM209.816 227.556h3.606l-2.552 19.2h-5.105l-1.859-15.205-1.943 15.205h-5.022l-2.469-19.2h3.746l1.581 16.148 2.109-16.148h4.106l2.026 16.148zM227.517 227.556v19.2h-4.883l-4.495-15.482 0.084 0.777c0.129 1.221 0.237 2.358 0.321 3.413 0.081 1.054 0.122 2.257 0.122 3.606v0 7.686h-3.44v-19.2h4.883l4.523 15.51c-0.148-0.814-0.277-1.837-0.389-3.069-0.111-1.228-0.166-2.49-0.166-3.784v0-8.657zM243.998 236.601c1.202 0.259 2.16 0.749 2.875 1.471 0.71 0.721 1.065 1.766 1.065 3.135v0c0 1.887-0.633 3.283-1.898 4.19-1.269 0.906-2.995 1.36-5.177 1.359v0h-5.077v-19.2h4.439c2.238 0 3.973 0.416 5.205 1.249 1.228 0.832 1.842 2.053 1.842 3.662v0c0 1.073-0.3 1.961-0.899 2.664-0.603 0.703-1.395 1.193-2.375 1.47zM240.586 230.386h-0.861v4.994h0.999c0.906 0 1.563-0.218 1.97-0.655 0.407-0.433 0.61-1.065 0.611-1.897v0c0-0.832-0.216-1.448-0.65-1.848-0.437-0.396-1.126-0.594-2.069-0.594zM240.891 243.843c0.999 0 1.754-0.218 2.264-0.655 0.507-0.433 0.76-1.149 0.76-2.148v0c0-1.017-0.235-1.766-0.705-2.247-0.474-0.481-1.219-0.721-2.236-0.721v0h-1.248v5.771zM249.936 227.556h9.85l-0.416 2.858h-5.494v5.161h4.8v2.83h-4.8v5.466h5.854v2.885h-9.794zM274.519 246.756h-3.968l-0.86-4.384h-4.606l-0.86 4.384h-3.884l4.744-19.2h4.717zM267.388 230.469l-1.748 9.045h3.496zM288.059 227.556v13.734c0 1.11-0.231 2.109-0.694 2.997-0.462 0.888-1.16 1.591-2.092 2.108-0.936 0.518-2.079 0.777-3.429 0.777v0c-2.035 0-3.588-0.542-4.662-1.626-1.073-1.08-1.609-2.499-1.609-4.256v0-13.734h3.94v13.568c0 1.054 0.185 1.831 0.555 2.33 0.37 0.499 0.962 0.749 1.776 0.749v0c0.795 0 1.378-0.255 1.748-0.765 0.37-0.507 0.555-1.278 0.555-2.314v0-13.568zM289.446 227.556h12.18l-0.416 3.024h-3.829v16.176h-3.912v-16.176h-4.023zM311.448 227.556h3.968l-5.05 11.931v7.269h-3.912v-7.242l-5.05-11.958h4.107l2.969 8.823z" fill="#6b671f" fill-rule="nonzero" stroke="none" stroke-width="1" stroke-linecap="butt" stroke-linejoin="miter" stroke-miterlimit="10" stroke-dasharray="" stroke-dashoffset="0" font-family="none" font-weight="none" font-size="none" text-anchor="none" style="mix-blend-mode: normal" data-fill-palette-color="secondary" id="text-1"></path></g></g><g transform="matrix(1,0,0,1,29.33176499999999,73.36098880866427)"><svg viewBox="0 0 316.416 94.23942238267146" height="94.23942238267146" width="316.416"><g><svg viewBox="0 0 316.416 94.23942238267146" height="94.23942238267146" width="316.416"><g><svg viewBox="0 0 316.416 94.23942238267146" height="94.23942238267146" width="316.416"><g id="textblocktransform"><svg viewBox="0 0 316.416 94.23942238267146" height="94.23942238267146" width="316.416" id="textblock"><g><svg viewBox="0 0 316.416 94.23942238267146" height="94.23942238267146" width="316.416"><g transform="matrix(1,0,0,1,0,0)"><svg width="316.416" viewBox="1 -33 110.79 33" height="94.23942238267146" data-palette-color="#ec040f"><path d="M1.65 0L1.65 0 1-1.9 5.4-2.95Q5.5-5.75 5.55-7.83 5.6-9.9 5.63-11.73 5.65-13.55 5.65-15.6L5.65-15.6Q5.65-18.4 5.58-22.03 5.5-25.65 5.4-29.75L5.4-29.75 1-31.05 1.6-33Q3.2-32.9 5.15-32.85 7.1-32.8 9.4-32.8L9.4-32.8Q11.55-32.8 13.33-32.88 15.1-32.95 16.8-33L16.8-33 17.35-31.05 12.9-29.75Q12.9-26.45 12.88-24.13 12.85-21.8 12.85-19.85 12.85-17.9 12.85-15.6L12.85-15.6Q12.85-13.15 12.85-9.8 12.85-6.45 12.9-2.95L12.9-2.95 17.35-1.9 16.8 0Q14.1-0.15 9.2-0.15L9.2-0.15Q6.9-0.15 5.05-0.1 3.2-0.05 1.65 0ZM35.75-1.9L35.05 0Q32.05-0.15 29.4-0.15L29.4-0.15Q27.7-0.15 25.98-0.1 24.25-0.05 23.4-0.05L23.4-0.05Q22.05-2.4 20.9-4.3 19.75-6.2 18.65-8 17.55-9.8 16.28-11.78 15-13.75 13.35-16.2L13.35-16.2Q14.3-16.9 15.5-17.6 16.7-18.3 17.75-18.93 18.8-19.55 19.15-19.95L19.15-19.95Q21.2-16.7 23-13.9 24.8-11.1 26.68-8.45 28.55-5.8 30.7-2.95L30.7-2.95 35.75-1.9ZM17.65-15.65L17.65-15.65 13.35-16.2Q16.45-18.95 18.5-21.13 20.55-23.3 22.13-25.43 23.7-27.55 25.25-30L25.25-30 21.2-31.05 21.8-33Q23.55-32.9 25.05-32.88 26.55-32.85 28.25-32.85L28.25-32.85Q31.65-32.85 34.25-33L34.25-33 34.85-31.05 30.5-30Q27-26.3 23.88-22.85 20.75-19.4 17.65-15.65ZM54.5-33L54.5-33 55.15-31.05 50.6-29.85Q50.6-25.6 50.57-22.35 50.55-19.1 50.55-16.23 50.55-13.35 50.55-10.2 50.55-7.05 50.6-2.95L50.6-2.95 55.15-1.9 54.5 0Q51.8-0.15 46.9-0.15L46.9-0.15Q44.6-0.15 42.65-0.1 40.7-0.05 39.15 0L39.15 0 38.5-1.9 43.1-2.95Q43.2-7 43.27-10.15 43.35-13.3 43.35-16.18 43.35-19.05 43.3-22.33 43.25-25.6 43.1-29.85L43.1-29.85 38.5-31.05 39.15-33Q41.1-32.9 42.95-32.85 44.8-32.8 47.1-32.8L47.1-32.8Q49.15-32.8 51.15-32.88 53.15-32.95 54.5-33ZM58.3 0L58.3 0 57.65-1.9 62.05-2.95Q62.15-5.75 62.2-7.83 62.25-9.9 62.27-11.73 62.3-13.55 62.3-15.6L62.3-15.6Q62.3-18.4 62.22-22.03 62.15-25.65 62.05-29.75L62.05-29.75 57.65-31.05 58.25-33Q59.85-32.9 61.8-32.85 63.75-32.8 66.05-32.8L66.05-32.8Q68.2-32.8 69.97-32.88 71.75-32.95 73.45-33L73.45-33 74-31.05 69.55-29.75Q69.55-26.45 69.52-24.13 69.5-21.8 69.5-19.85 69.5-17.9 69.5-15.6L69.5-15.6Q69.5-13.15 69.5-9.8 69.5-6.45 69.55-2.95L69.55-2.95 74-1.9 73.45 0Q70.75-0.15 65.85-0.15L65.85-0.15Q63.55-0.15 61.7-0.1 59.85-0.05 58.3 0ZM92.4-1.9L91.7 0Q88.7-0.15 86.05-0.15L86.05-0.15Q84.35-0.15 82.62-0.1 80.9-0.05 80.05-0.05L80.05-0.05Q78.7-2.4 77.55-4.3 76.4-6.2 75.3-8 74.2-9.8 72.92-11.78 71.65-13.75 70-16.2L70-16.2Q70.95-16.9 72.15-17.6 73.35-18.3 74.4-18.93 75.45-19.55 75.8-19.95L75.8-19.95Q77.85-16.7 79.65-13.9 81.45-11.1 83.32-8.45 85.2-5.8 87.35-2.95L87.35-2.95 92.4-1.9ZM74.3-15.65L74.3-15.65 70-16.2Q73.1-18.95 75.15-21.13 77.2-23.3 78.77-25.43 80.35-27.55 81.9-30L81.9-30 77.85-31.05 78.45-33Q80.2-32.9 81.7-32.88 83.2-32.85 84.9-32.85L84.9-32.85Q88.3-32.85 90.9-33L90.9-33 91.5-31.05 87.15-30Q83.65-26.3 80.52-22.85 77.4-19.4 74.3-15.65ZM111.14-33L111.14-33 111.79-31.05 107.24-29.85Q107.24-25.6 107.22-22.35 107.19-19.1 107.19-16.23 107.19-13.35 107.19-10.2 107.19-7.05 107.24-2.95L107.24-2.95 111.79-1.9 111.14 0Q108.44-0.15 103.54-0.15L103.54-0.15Q101.24-0.15 99.29-0.1 97.34-0.05 95.79 0L95.79 0 95.14-1.9 99.74-2.95Q99.84-7 99.92-10.15 99.99-13.3 99.99-16.18 99.99-19.05 99.94-22.33 99.89-25.6 99.74-29.85L99.74-29.85 95.14-31.05 95.79-33Q97.74-32.9 99.59-32.85 101.44-32.8 103.74-32.8L103.74-32.8Q105.79-32.8 107.79-32.88 109.79-32.95 111.14-33Z" opacity="1" transform="matrix(1,0,0,1,0,0)" fill="#ec040f" class="wordmark-text-0" data-fill-palette-color="primary" id="text-0"></path></svg></g></svg></g></svg></g></svg></g></svg></g></svg></g></svg></g><defs></defs></svg><rect width="375.07953" height="240.96140000000003" fill="none" stroke="none" visibility="hidden"></rect></g></svg></g></svg>